# xmcd
#
# Track frame offsets:
#	150
#	23010
#	44707
#	61335
#	88590
#	116412
#	137995
#	150855
#	167370
#	185005
#
# Disc length: 2838 seconds
#
# Revision: 0
# Processed by: cddbd v1.4PL0 Copyright (c) Steve Scherf et al.
# Submitted via: EasyCDDAExtractor 4.6.0.1
#
DISCID=7a0b140a
DTITLE=Martyna Jakubowicz - kolysz mnie CD1
DYEAR=1992
DGENRE=Blues
TTITLE0=karczma na moscie
TTITLE1=zagle tuz nad ziemia
TTITLE2=stara tasma na moim grundigu
TTITLE3=mlode wino
TTITLE4=kiedy bede stara kobieta
TTITLE5=sila zlosci - post milosci
TTITLE6=puste miejsce po obrazku na scianie
TTITLE7=i wtedy wlasnie
TTITLE8=dom zachodzacego slonca
TTITLE9=ardzuna i kriszna
EXTD=http://nav.to/wojtus                                       (collection)
EXTT0=
EXTT1=
EXTT2=
EXTT3=
EXTT4=
EXTT5=
EXTT6=
EXTT7=
EXTT8=
EXTT9=
PLAYORDER=
